@startuml
'https://plantuml.com/ja/state-diagram

<style>
stateDiagram {
  arrow {
    FontSize 10
  }
}
</style>

[*] --> SkillStartState
SkillStartState --> SkillStopState : プレイヤーに対し状態異常を失敗
SkillStartState -> SkillOutputState
SkillOutputState --> SkillOutputState : 表示するメッセージが残っている
SkillOutputState --> SkillStopState : すべてのメッセージを表示した
SkillStopState --> [*]

SkillStartState : スキルを実行した結果を\nRepositoryに登録
SkillOutputState : スキルを実行した結果を\n画面に表示
SkillStopState : スキルの実行を終了する
@enduml